<?xml version="1.0" encoding="UTF-8"?>
<svg width="188px" height="42px" viewBox="0 0 188 42" version="1.1" xmlns="http://www.w3.org/2000/svg" xmlns:xlink="http://www.w3.org/1999/xlink">
    <!-- Generator: Sketch 54.1 (76490) - https://sketchapp.com -->
    <title>Group</title>
    <desc>Created with Sketch.</desc>
    <defs>
        <path d="M34.21,32.406 L26.857,32.406 L26.857,28.005 C24.897,31.572 20.799,33.359 16.48,33.359 C6.606,33.359 0.829,25.719 0.829,17.075 C0.829,7.428 7.839,0.85 16.48,0.85 C22.091,0.85 25.515,3.804 26.857,6.255 L26.857,1.797 L34.21,1.797 L34.21,32.406 Z M8.177,17.243 C8.177,21.035 10.925,26.554 17.543,26.554 C21.639,26.554 24.333,24.436 25.737,21.649 C26.465,20.312 26.801,18.861 26.914,17.355 C26.971,15.906 26.689,14.403 26.073,13.064 C24.784,10.163 21.921,7.649 17.491,7.649 C11.542,7.649 8.177,12.45 8.177,17.188 L8.177,17.243 Z" id="path-1"></path>
        <path d="M24.786,21.092 C25.415,23.749 26.618,26.181 28.363,28.152 C25.459,31.171 21.334,33.111 16.526,33.111 C6.769,33.111 0.035,25.58 0.035,16.829 C0.035,7.792 7.047,0.599 16.249,0.599 C21.031,0.599 25.356,2.452 28.396,5.627 C26.654,7.555 25.381,9.968 24.751,12.754 C23.421,9.611 20.494,7.4 16.526,7.4 C13.837,7.347 11.762,8.294 9.968,10.026 C8.394,11.694 7.441,14.152 7.441,16.829 C7.441,22.346 11.309,26.251 16.526,26.251 C21.079,26.251 23.648,23.578 24.786,21.092 Z" id="path-3"></path>
        <path d="M0.596,1.05 L7.499,1.05 C7.499,2.388 7.499,3.673 7.443,5.12 C8.785,2.722 11.536,0.047 17.033,0.1 C27.074,0.155 28.981,7.799 28.981,13.208 L28.981,31.663 L21.632,31.663 L21.632,15.051 C21.632,10.474 20.117,6.958 14.957,6.958 C9.738,7.016 7.942,10.474 7.942,14.77 L7.942,31.663 L0.596,31.663 L0.596,1.05 Z" id="path-5"></path>
        <path d="M16.063,9.306 C16.007,7.686 15.168,6.014 12.305,6.014 C9.834,6.014 8.66,7.577 8.66,9.081 C8.719,11.033 10.956,12.092 13.874,12.927 C18.814,14.268 24.142,15.719 24.2,22.295 C24.308,28.597 18.979,32.61 12.527,32.61 C7.759,32.61 1.307,30.157 0.744,22.744 L8.098,22.744 C8.379,26.03 11.235,26.703 12.642,26.703 C14.939,26.703 16.906,25.193 16.848,23.134 C16.848,20.512 14.549,19.79 8.88,17.836 C4.732,16.554 1.368,14.268 1.307,9.864 C1.307,3.839 6.415,0.1 12.362,0.1 C16.509,0.1 22.679,1.942 23.302,9.306 L16.063,9.306 Z" id="path-7"></path>
        <path d="M7.405,18.786 C7.743,23.689 12.119,26.423 16.325,26.365 C19.916,26.365 22.328,24.75 23.734,22.238 L31.306,22.238 C29.847,25.644 27.657,28.208 25.079,29.931 C22.497,31.718 19.473,32.61 16.27,32.61 C6.789,32.61 0.001,24.971 0.001,16.442 C0.001,7.744 6.844,0.1 16.158,0.1 C20.761,0.1 24.797,1.829 27.657,4.786 C31.419,8.634 32.819,13.432 32.203,18.786 L7.405,18.786 Z M24.966,13.208 C24.685,10.308 21.601,6.236 16.214,6.291 C10.773,6.291 7.799,10.198 7.52,13.208 L24.966,13.208 Z" id="path-9"></path>
        <path d="M7.806,18.786 C8.141,23.689 12.517,26.423 16.724,26.365 C20.315,26.365 22.727,24.75 24.13,22.238 L31.698,22.238 C30.244,25.644 28.057,28.208 25.473,29.931 C22.895,31.718 19.865,32.61 16.668,32.61 C7.189,32.61 0.398,24.971 0.398,16.442 C0.398,7.744 7.243,0.1 16.556,0.1 C21.155,0.1 25.196,1.829 28.057,4.786 C31.815,8.634 33.217,13.432 32.6,18.786 L7.806,18.786 Z M25.365,13.208 C25.082,10.308 21.998,6.236 16.613,6.291 C11.169,6.291 8.197,10.198 7.919,13.208 L25.365,13.208 Z" id="path-11"></path>
        <polygon id="path-13" points="0.06 0.783 7.35 0.783 7.35 31.598 0.06 31.598"></polygon>
        <path d="M0.06,4.13216107 L0.06,3.17894527 C0.295244303,1.38645676 1.84068386,0 3.712,0 C5.741,0 7.39,1.638 7.39,3.655 C7.39,5.677 5.741,7.315 3.712,7.315 C1.84068386,7.315 0.295244303,5.92854324 0.06,4.13216107 L0.06,4.13216107 Z" id="path-15"></path>
    </defs>
    <g id="Page-1" stroke="none" stroke-width="1" fill="none" fill-rule="evenodd">
        <g id="Artboard" transform="translate(-418.000000, -158.000000)">
            <g id="Group" transform="translate(418.000000, 158.000000)">
                <g id="Group-3" transform="translate(34.000000, 8.000000)">
                    <mask id="mask-2" fill="white">
                        <use xlink:href="#path-1"></use>
                    </mask>
                    <g id="Clip-2"></g>
                    <polygon id="Fill-1" fill="#FFFFFE" mask="url(#mask-2)" points="0.74 33.42 34.22 33.42 34.22 0.78 0.74 0.78"></polygon>
                </g>
                <g id="Group-6" transform="translate(9.000000, 8.000000)">
                    <mask id="mask-4" fill="white">
                        <use xlink:href="#path-3"></use>
                    </mask>
                    <g id="Clip-5"></g>
                    <polygon id="Fill-4" fill="#FFFFFE" mask="url(#mask-4)" points="-0.06 33.18 28.5 33.18 28.5 0.54 -0.06 0.54"></polygon>
                </g>
                <g id="Group-9" transform="translate(70.000000, 9.000000)">
                    <mask id="mask-6" fill="white">
                        <use xlink:href="#path-5"></use>
                    </mask>
                    <g id="Clip-8"></g>
                    <polygon id="Fill-7" fill="#FFFFFE" mask="url(#mask-6)" points="0.5 31.7 29.06 31.7 29.06 0.02 0.5 0.02"></polygon>
                </g>
                <g id="Group-12" transform="translate(99.000000, 9.000000)">
                    <mask id="mask-8" fill="white">
                        <use xlink:href="#path-7"></use>
                    </mask>
                    <g id="Clip-11"></g>
                    <polygon id="Fill-10" fill="#FFFFFE" mask="url(#mask-8)" points="0.66 32.66 24.3 32.66 24.3 0.02 0.66 0.02"></polygon>
                </g>
                <g id="Group-15" transform="translate(124.000000, 9.000000)">
                    <mask id="mask-10" fill="white">
                        <use xlink:href="#path-9"></use>
                    </mask>
                    <g id="Clip-14"></g>
                    <polygon id="Fill-13" fill="#FFFFFE" mask="url(#mask-10)" points="-0.1 32.66 32.42 32.66 32.42 0.02 -0.1 0.02"></polygon>
                </g>
                <g id="Group-18" transform="translate(155.000000, 9.000000)">
                    <mask id="mask-12" fill="white">
                        <use xlink:href="#path-11"></use>
                    </mask>
                    <g id="Clip-17"></g>
                    <polygon id="Fill-16" fill="#FFFFFE" mask="url(#mask-12)" points="0.34 32.66 32.74 32.66 32.74 0.02 0.34 0.02"></polygon>
                </g>
                <g id="Group-21" transform="translate(0.000000, 9.000000)">
                    <mask id="mask-14" fill="white">
                        <use xlink:href="#path-13"></use>
                    </mask>
                    <g id="Clip-20"></g>
                    <polygon id="Fill-19" fill="#FFFFFE" mask="url(#mask-14)" points="0.06 31.598 7.35 31.598 7.35 0.783 0.06 0.783"></polygon>
                </g>
                <g id="Group-24">
                    <mask id="mask-16" fill="white">
                        <use xlink:href="#path-15"></use>
                    </mask>
                    <g id="Clip-23"></g>
                    <polygon id="Fill-22" fill="#FFFFFE" mask="url(#mask-16)" points="0.06 7.34 7.5 7.34 7.5 -0.1 0.06 -0.1"></polygon>
                </g>
            </g>
        </g>
    </g>
</svg>